<?xml version="1.0" encoding="utf-8"?>
<!-- Generator: Adobe Illustrator 24.2.1, SVG Export Plug-In . SVG Version: 6.00 Build 0)  -->
<svg version="1.1" id="Layer_1" xmlns="http://www.w3.org/2000/svg" xmlns:xlink="http://www.w3.org/1999/xlink" x="0px" y="0px"
	 viewBox="0 0 32 32" style="enable-background:new 0 0 32 32;" xml:space="preserve">
<style type="text/css">
	.st0{fill:#FF3C4D;}
</style>
<g id="Layer_1_2_">
	<g id="Layer_1_1_">
		<g id="Layer_2_2_">
		</g>
	</g>
	<g>
		<path class="st0" d="M20.4,21.2c0.1,0,0.1,0,0.1-0.1v-4.7l4.5,4.2h0.1l0.1-0.1v-8.8h-0.1l-4.5,4.2v-5c0-0.1,0-0.1-0.1-0.1h-0.6
			L14,21.2H20.4z"/>
		<path class="st0" d="M7.7,10.8c-0.1,0-0.1,0-0.1,0.1v10.2c0,0.1,0,0.1,0.1,0.1h3.4L17,10.8H7.7z"/>
		<path class="st0" d="M16,0C7.2,0,0,7.2,0,16s7.2,16,16,16s16-7.2,16-16S24.8,0,16,0z M26,22.4c-0.8,0.3-1.7,0.2-2.3-0.4l-1.1-1
			v0.1c0,1.2-0.9,2.1-2.1,2.1h-7.7l-2,3.6c-0.2,0.4-0.7,0.6-1.1,0.6c-0.2,0-0.4-0.1-0.6-0.2c-0.6-0.3-0.8-1.1-0.5-1.7l1.3-2.3H7.7
			c-1.2,0-2.1-0.9-2.1-2.1V10.9c0-1.2,0.9-2.1,2.1-2.1h10.4L20.3,5c0.3-0.6,1.1-0.8,1.7-0.5s0.8,1.1,0.5,1.7L21,8.9
			c0.9,0.2,1.5,1,1.5,2v0.4l1.1-1.1c0.6-0.6,1.5-0.7,2.3-0.4s1.3,1.1,1.3,1.9l0.1,8.6v0.2C27.3,21.3,26.8,22.1,26,22.4z"/>
	</g>
</g>
</svg>
