<?xml version="1.0" encoding="utf-8"?>
<!-- Generator: Adobe Illustrator 25.0.1, SVG Export Plug-In . SVG Version: 6.00 Build 0)  -->
<svg version="1.1" xmlns="http://www.w3.org/2000/svg" xmlns:xlink="http://www.w3.org/1999/xlink" x="0px" y="0px"
	 viewBox="0 0 120 36" style="enable-background:new 0 0 120 36;" xml:space="preserve">
<style type="text/css">
	.st0{fill:#1E1A1A;}
	.st1{fill:#DEFD9B;}
	.st2{enable-background:new    ;}
</style>
<g id="Layer_2">
	<rect class="st0" width="120" height="36"/>
</g>
<g id="Layer_1">
	<g id="Layer_1_1_">
		<path id="Rectangle_27" class="st1" d="M12,0h96c6.6,0,12,5.4,12,12v12c0,6.6-5.4,12-12,12H12C5.4,36,0,30.6,0,24V12
			C0,5.4,5.4,0,12,0z"/>
	</g>
	<g id="Layer_2_1_">
		<g class="st2">
			<path class="st0" d="M16.9,19.6c0-1,0.1-1.9,0.4-2.8s0.7-1.5,1.2-2.1s1.2-1,1.9-1.3S22,13,22.9,13c0.4,0,0.7,0,1,0.1
				s0.5,0.1,0.7,0.2s0.4,0.2,0.5,0.2s0.3,0.2,0.3,0.2c0.1,0.1,0.2,0.2,0.2,0.3s0.1,0.2,0.1,0.4c0,0.1,0,0.2-0.1,0.3s0,0.3-0.1,0.3
				s-0.1,0.1-0.2,0.2s-0.2,0.1-0.3,0.1c-0.1,0-0.3,0-0.4-0.1s-0.3-0.1-0.4-0.2s-0.4-0.1-0.6-0.2s-0.5-0.1-0.8-0.1
				c-0.5,0-1,0.1-1.4,0.3s-0.8,0.5-1.1,0.9s-0.6,0.9-0.8,1.4s-0.3,1.2-0.3,2c0,0.7,0.1,1.3,0.3,1.8s0.4,1,0.8,1.3s0.7,0.6,1.2,0.8
				s1,0.3,1.5,0.3c0.3,0,0.6,0,0.9-0.1s0.4-0.1,0.6-0.2s0.3-0.1,0.4-0.2s0.1,0,0.2,0s0.2,0,0.3,0.1s0.2,0.1,0.2,0.1s0.1,0.1,0.1,0.2
				s0,0.2,0,0.3c0,0.1,0,0.3-0.1,0.4s-0.1,0.2-0.2,0.3s-0.2,0.2-0.4,0.3s-0.4,0.2-0.7,0.3s-0.5,0.1-0.9,0.2s-0.7,0.1-1.1,0.1
				c-0.8,0-1.6-0.1-2.3-0.4s-1.3-0.7-1.7-1.1s-0.9-1.1-1.1-1.8S16.9,20.4,16.9,19.6z"/>
			<path class="st0" d="M28.3,19.3c0-1,0.1-1.9,0.4-2.7s0.7-1.4,1.2-2s1.1-1,1.9-1.2c0.7-0.3,1.5-0.4,2.4-0.4c0.8,0,1.6,0.1,2.2,0.4
				s1.3,0.7,1.8,1.2s0.9,1.1,1.2,1.9s0.4,1.5,0.4,2.4c0,1-0.1,1.9-0.4,2.7c-0.3,0.8-0.7,1.4-1.2,2c-0.5,0.5-1.1,1-1.9,1.2
				c-0.7,0.3-1.5,0.4-2.4,0.4c-0.8,0-1.6-0.1-2.2-0.4c-0.7-0.3-1.3-0.7-1.8-1.2s-0.9-1.1-1.2-1.9C28.4,21.1,28.3,20.2,28.3,19.3z
				 M30.5,19.1c0,0.7,0.1,1.3,0.3,1.9s0.4,1,0.8,1.4s0.7,0.7,1.1,0.9s0.9,0.3,1.4,0.3s1-0.1,1.4-0.3s0.8-0.5,1.1-0.8
				s0.6-0.8,0.7-1.4s0.3-1.2,0.3-1.9c0-0.7-0.1-1.3-0.3-1.9s-0.4-1-0.8-1.4s-0.7-0.7-1.1-0.9s-0.9-0.3-1.4-0.3s-1,0.1-1.4,0.3
				s-0.8,0.5-1.1,0.8s-0.6,0.8-0.7,1.4S30.5,18.4,30.5,19.1z"/>
			<path class="st0" d="M43.6,14c0-0.3,0.1-0.5,0.2-0.7s0.4-0.2,0.7-0.2c0.1,0,0.3,0,0.4,0.1s0.2,0.1,0.3,0.2s0.1,0.2,0.2,0.3
				s0.1,0.3,0.1,0.4l0.1,0.8l0,0c0.2-0.4,0.5-0.7,0.9-0.9c0.1-0.1,0.3-0.2,0.5-0.3s0.4-0.2,0.6-0.3s0.5-0.2,0.8-0.2s0.6-0.1,0.9-0.1
				c0.7,0,1.3,0.1,1.8,0.3s1,0.5,1.4,0.9s0.7,0.9,0.9,1.5c0.2,0.6,0.3,1.3,0.3,2.1v6.3c0,0.3-0.1,0.5-0.3,0.7s-0.4,0.3-0.8,0.3
				S52,25,51.8,24.9s-0.3-0.4-0.3-0.7v-6c0-0.6-0.1-1.1-0.2-1.5s-0.3-0.8-0.5-1s-0.5-0.5-0.9-0.6s-0.7-0.2-1.2-0.2
				c-0.3,0-0.5,0-0.7,0.1s-0.4,0.1-0.6,0.2s-0.4,0.2-0.5,0.3s-0.3,0.2-0.4,0.4c-0.3,0.3-0.6,0.6-0.8,1v7.3c0,0.3-0.1,0.5-0.3,0.7
				s-0.4,0.3-0.8,0.3S44,25,43.8,24.9s-0.3-0.4-0.3-0.7L43.6,14L43.6,14z"/>
			<path class="st0" d="M58.2,14c0-0.3,0.1-0.5,0.2-0.7s0.4-0.2,0.7-0.2c0.1,0,0.3,0,0.4,0.1s0.2,0.1,0.3,0.2s0.1,0.2,0.2,0.3
				s0.1,0.3,0.1,0.4l0.1,0.8l0,0c0.2-0.4,0.5-0.7,0.9-0.9c0.1-0.1,0.3-0.2,0.5-0.3s0.4-0.2,0.6-0.3s0.5-0.2,0.8-0.2s0.6-0.1,0.9-0.1
				c0.7,0,1.3,0.1,1.8,0.3s1,0.5,1.4,0.9s0.7,0.9,0.9,1.5c0.2,0.6,0.3,1.3,0.3,2.1v6.3c0,0.3-0.1,0.5-0.3,0.7s-0.4,0.3-0.8,0.3
				s-0.6-0.1-0.8-0.3s-0.3-0.4-0.3-0.7v-6c0-0.6-0.1-1.1-0.2-1.5s-0.3-0.8-0.5-1s-0.5-0.5-0.9-0.6s-0.7-0.2-1.2-0.2
				c-0.3,0-0.5,0-0.7,0.1s-0.4,0.1-0.6,0.2s-0.4,0.2-0.5,0.3s-0.3,0.2-0.4,0.4c-0.3,0.3-0.6,0.6-0.8,1v7.3c0,0.3-0.1,0.5-0.3,0.7
				s-0.4,0.3-0.8,0.3s-0.6-0.1-0.8-0.3s-0.3-0.4-0.3-0.7L58.2,14L58.2,14z"/>
			<path class="st0" d="M74.2,19.4L74.2,19.4c0,0.7,0.1,1.3,0.3,1.8s0.4,0.9,0.8,1.3s0.7,0.6,1.2,0.8s1,0.3,1.6,0.3
				c0.4,0,0.8,0,1.1-0.1s0.6-0.1,0.8-0.2s0.4-0.1,0.6-0.2S80.9,23,81,23s0.2,0,0.3,0.1s0.2,0.1,0.2,0.1s0.1,0.1,0.1,0.2s0,0.2,0,0.3
				c0,0.1,0,0.3-0.1,0.4s-0.1,0.2-0.2,0.3c-0.1,0.1-0.3,0.2-0.5,0.3S80.3,24.9,80,25s-0.7,0.2-1.1,0.3s-0.9,0.1-1.4,0.1
				c-0.9,0-1.6-0.1-2.3-0.4c-0.7-0.3-1.3-0.7-1.8-1.1s-0.9-1.1-1.1-1.8S72,20.4,72,19.5c0-1,0.1-2,0.4-2.8s0.7-1.5,1.2-2
				s1.1-1,1.8-1.3c0.7-0.3,1.4-0.4,2.2-0.4c0.7,0,1.3,0.1,1.9,0.3s1,0.6,1.5,1s0.7,1,0.9,1.6s0.3,1.3,0.3,2.1c0,0.4-0.1,0.8-0.3,1
				s-0.5,0.3-0.9,0.3L74.2,19.4L74.2,19.4z M80.1,17.8c-0.1-1.1-0.4-1.9-0.9-2.4s-1.1-0.8-2-0.8c-0.4,0-0.7,0.1-1,0.2
				s-0.6,0.3-0.9,0.6s-0.5,0.6-0.7,1s-0.3,0.9-0.4,1.4H80.1z"/>
			<path class="st0" d="M85.1,19.6c0-1,0.1-1.9,0.4-2.8s0.7-1.5,1.2-2.1s1.2-1,1.9-1.3s1.5-0.5,2.4-0.5c0.4,0,0.7,0,1,0.1
				s0.5,0.1,0.7,0.2s0.4,0.2,0.5,0.2s0.3,0.2,0.3,0.2c0.1,0.1,0.2,0.2,0.2,0.3s0.1,0.2,0.1,0.4c0,0.1,0,0.2-0.1,0.3s0.1,0.4,0.1,0.4
				s-0.1,0.1-0.2,0.2s-0.2,0.1-0.3,0.1c-0.1,0-0.3,0-0.4-0.1s-0.3-0.1-0.4-0.2s-0.4-0.1-0.6-0.2s-0.5-0.1-0.8-0.1
				c-0.5,0-1,0.1-1.4,0.3s-0.8,0.5-1.1,0.9s-0.6,0.9-0.8,1.4s-0.3,1.2-0.3,2c0,0.7,0.1,1.3,0.3,1.8s0.4,1,0.8,1.3s0.7,0.6,1.2,0.8
				s1,0.3,1.5,0.3c0.3,0,0.6,0,0.9-0.1s0.4-0.1,0.6-0.2s0.3-0.1,0.4-0.2s0.2-0.1,0.4-0.1c0.1,0,0.2,0,0.3,0.1s0.2,0.1,0.2,0.1
				s0.1,0.1,0.1,0.2s0,0.2,0,0.3c0,0.1,0,0.3-0.1,0.4s-0.1,0.2-0.2,0.3s-0.2,0.2-0.4,0.3s-0.4,0.2-0.7,0.3s-0.5,0.1-0.9,0.2
				s-0.7,0.1-1.1,0.1c-0.8,0-1.6-0.1-2.3-0.4s-1.3-0.7-1.7-1.1s-0.9-1.1-1.1-1.8S85.1,20.4,85.1,19.6z"/>
			<path class="st0" d="M96.6,14.9c-0.2,0-0.4-0.1-0.6-0.2s-0.2-0.4-0.2-0.6s0.1-0.5,0.2-0.6s0.3-0.2,0.6-0.2h1.3l0.3-2.2
				c0-0.3,0.2-0.6,0.3-0.8s0.4-0.2,0.7-0.2c0.3,0,0.5,0.1,0.6,0.2s0.2,0.4,0.2,0.7v2.3h2.5c0.2,0,0.4,0.1,0.6,0.2s0.2,0.4,0.2,0.6
				s-0.1,0.5-0.2,0.6s-0.3,0.2-0.6,0.2H100v6.8c0,0.6,0.1,1.1,0.3,1.3s0.6,0.4,1,0.4c0.2,0,0.3,0,0.5,0s0.2,0,0.3-0.1
				s0.2-0.1,0.3-0.1s0.2,0,0.2,0c0.1,0,0.2,0,0.3,0s0.1,0.1,0.2,0.1c0.1,0.1,0.1,0.1,0.1,0.2s0.1,0.2,0.1,0.3c0,0.2,0,0.3-0.1,0.4
				s-0.1,0.2-0.2,0.3c-0.1,0.1-0.1,0.1-0.2,0.2s-0.3,0.1-0.4,0.2c-0.2,0.1-0.4,0.1-0.6,0.2s-0.5,0.1-0.8,0.1c-1,0-1.8-0.2-2.3-0.7
				S98,23.3,98,22.3V15L96.6,14.9L96.6,14.9z"/>
		</g>
	</g>
</g>
</svg>
