<?xml version="1.0" encoding="utf-8"?>
<!-- Generator: Adobe Illustrator 25.2.3, SVG Export Plug-In . SVG Version: 6.00 Build 0)  -->
<svg version="1.1" id="Layer_1" xmlns="http://www.w3.org/2000/svg" xmlns:xlink="http://www.w3.org/1999/xlink" x="0px" y="0px"
	 viewBox="0 0 80 32" style="enable-background:new 0 0 80 32;" xml:space="preserve">
<style type="text/css">
	.st0{fill:#FF3B4D;}
	.st1{enable-background:new    ;}
	.st2{fill:#1E1A1A;}
</style>
<g>
	<path class="st0" d="M80,22c0,5.5-4.5,10-10,10H10C4.5,32,0,27.5,0,22V10C0,4.5,4.5,0,10,0h60c5.5,0,10,4.5,10,10V22z"/>
</g>
<g id="Layer_2_2_">
	<g class="st1">
		<path class="st2" d="M-3.7-18.4c0-0.9,0.1-1.7,0.4-2.5s0.7-1.3,1.1-1.9c0.5-0.5,1.1-0.9,1.8-1.2s1.5-0.4,2.3-0.4
			c0.4,0,0.7,0,0.9,0.1c0.3,0.1,0.5,0.1,0.7,0.2c0.2,0.1,0.4,0.2,0.5,0.2c0.1,0,0.3,0.2,0.3,0.2c0.1,0.1,0.2,0.2,0.2,0.3
			c0,0.1,0.1,0.2,0.1,0.4c0,0.1,0,0.2-0.1,0.3c-0.1,0.1,0,0.3-0.1,0.3s-0.1,0.1-0.2,0.2s-0.2,0.1-0.3,0.1c-0.1,0-0.3,0-0.4-0.1
			c-0.1-0.1-0.3-0.1-0.4-0.2s-0.4-0.1-0.6-0.2c-0.2-0.1-0.5-0.1-0.7-0.1c-0.5,0-0.9,0.1-1.3,0.3c-0.4,0.2-0.7,0.4-1,0.8
			s-0.6,0.8-0.7,1.2s-0.3,1.1-0.3,1.8c0,0.6,0.1,1.2,0.3,1.6s0.4,0.9,0.7,1.2c0.4,0.3,0.7,0.5,1.1,0.7C1-15,1.5-14.9,2-14.9
			c0.3,0,0.6,0,0.8-0.1s0.4-0.1,0.6-0.2s0.3-0.1,0.4-0.2c0.1-0.1,0.1,0,0.2,0c0.1,0,0.2,0,0.3,0.1c0.1,0.1,0.2,0.1,0.2,0.1
			s0.1,0.1,0.1,0.2s0,0.2,0,0.3c0,0.1,0,0.3-0.1,0.4s-0.1,0.2-0.2,0.3C4.1-14,4-13.9,3.8-13.9c-0.2,0.1-0.4,0.2-0.7,0.3
			c-0.3,0.1-0.5,0.1-0.8,0.2s-0.7,0.1-1,0.1c-0.7,0-1.5-0.1-2.1-0.4c-0.7-0.3-1.2-0.6-1.6-1c-0.4-0.4-0.8-1-1-1.6
			C-3.6-16.9-3.7-17.7-3.7-18.4z"/>
		<path class="st2" d="M6.9-18.7c0-0.9,0.1-1.7,0.4-2.4s0.7-1.2,1.1-1.8c0.5-0.5,1-0.9,1.8-1.1c0.7-0.3,1.4-0.4,2.2-0.4
			c0.7,0,1.5,0.1,2.1,0.4c0.6,0.3,1.2,0.6,1.7,1.1c0.5,0.4,0.8,1,1.1,1.7c0.3,0.7,0.4,1.3,0.4,2.1c0,0.9-0.1,1.7-0.4,2.4
			c-0.3,0.7-0.7,1.2-1.1,1.8c-0.5,0.4-1,0.9-1.8,1.1c-0.7,0.3-1.4,0.4-2.2,0.4c-0.7,0-1.5-0.1-2.1-0.4c-0.7-0.3-1.2-0.6-1.7-1.1
			c-0.5-0.4-0.8-1-1.1-1.7C7-17.1,6.9-17.9,6.9-18.7z M9-18.8c0,0.6,0.1,1.2,0.3,1.7c0.2,0.5,0.4,0.9,0.7,1.2s0.7,0.6,1,0.8
			c0.4,0.2,0.8,0.3,1.3,0.3c0.5,0,0.9-0.1,1.3-0.3c0.4-0.2,0.7-0.4,1-0.7c0.3-0.3,0.6-0.7,0.7-1.2c0.1-0.5,0.3-1.1,0.3-1.7
			c0-0.6-0.1-1.2-0.3-1.7c-0.2-0.5-0.4-0.9-0.7-1.2c-0.4-0.4-0.7-0.6-1-0.8c-0.4-0.2-0.8-0.3-1.3-0.3c-0.5,0-0.9,0.1-1.3,0.3
			c-0.4,0.2-0.7,0.4-1,0.7c-0.3,0.3-0.6,0.7-0.7,1.2C9.2-20,9-19.5,9-18.8z"/>
		<path class="st2" d="M21.2-23.4c0-0.3,0.1-0.4,0.2-0.6c0.1-0.2,0.4-0.2,0.7-0.2c0.1,0,0.3,0,0.4,0.1c0.1,0.1,0.2,0.1,0.3,0.2
			c0.1,0.1,0.1,0.2,0.2,0.3c0.1,0.1,0.1,0.3,0.1,0.4l0.1,0.7l0,0c0.2-0.4,0.5-0.6,0.8-0.8c0.1-0.1,0.3-0.2,0.5-0.3
			c0.2-0.1,0.4-0.2,0.6-0.3c0.2-0.1,0.5-0.2,0.7-0.2c0.3,0,0.6-0.1,0.8-0.1c0.7,0,1.2,0.1,1.7,0.3c0.5,0.2,0.9,0.4,1.3,0.8
			s0.7,0.8,0.8,1.3c0.2,0.5,0.3,1.2,0.3,1.9v5.6c0,0.3-0.1,0.4-0.3,0.6c-0.2,0.2-0.4,0.3-0.7,0.3s-0.6-0.2-0.7-0.3
			c-0.2-0.1-0.3-0.4-0.3-0.6v-5.3c0-0.5-0.1-1-0.2-1.3c-0.1-0.4-0.3-0.7-0.5-0.9c-0.2-0.2-0.5-0.4-0.8-0.5c-0.4-0.1-0.7-0.2-1.1-0.2
			c-0.3,0-0.5,0-0.7,0.1c-0.2,0.1-0.4,0.1-0.6,0.2s-0.4,0.2-0.5,0.3c-0.1,0.1-0.3,0.2-0.4,0.4c-0.3,0.3-0.6,0.5-0.7,0.9v6.5
			c0,0.3-0.1,0.4-0.3,0.6c-0.2,0.2-0.4,0.3-0.7,0.3s-0.6-0.2-0.7-0.3c-0.2-0.1-0.3-0.4-0.3-0.6L21.2-23.4L21.2-23.4z"/>
		<path class="st2" d="M34.8-23.4c0-0.3,0.1-0.4,0.2-0.6c0.1-0.2,0.4-0.2,0.7-0.2c0.1,0,0.3,0,0.4,0.1c0.1,0.1,0.2,0.1,0.3,0.2
			c0.1,0.1,0.1,0.2,0.2,0.3c0.1,0.1,0.1,0.3,0.1,0.4l0.1,0.7l0,0c0.2-0.4,0.5-0.6,0.8-0.8c0.1-0.1,0.3-0.2,0.5-0.3
			c0.2-0.1,0.4-0.2,0.6-0.3c0.2-0.1,0.5-0.2,0.7-0.2s0.6-0.1,0.8-0.1c0.7,0,1.2,0.1,1.7,0.3s0.9,0.4,1.3,0.8
			c0.4,0.4,0.7,0.8,0.8,1.3c0.2,0.5,0.3,1.2,0.3,1.9v5.6c0,0.3-0.1,0.4-0.3,0.6c-0.2,0.2-0.4,0.3-0.7,0.3c-0.4,0-0.6-0.1-0.7-0.3
			c-0.2-0.2-0.3-0.4-0.3-0.6v-5.3c0-0.5-0.1-1-0.2-1.3c-0.1-0.4-0.3-0.7-0.5-0.9c-0.2-0.2-0.5-0.4-0.8-0.5c-0.4-0.1-0.7-0.2-1.1-0.2
			c-0.3,0-0.5,0-0.7,0.1c-0.2,0.1-0.4,0.1-0.6,0.2c-0.2,0.1-0.4,0.2-0.5,0.3c-0.1,0.1-0.3,0.2-0.4,0.4c-0.3,0.3-0.6,0.5-0.7,0.9v6.5
			c0,0.3-0.1,0.4-0.3,0.6c-0.2,0.2-0.4,0.3-0.7,0.3s-0.6-0.1-0.7-0.3c-0.2-0.2-0.3-0.4-0.3-0.6L34.8-23.4L34.8-23.4z"/>
		<path class="st2" d="M49.8-18.6L49.8-18.6c0,0.6,0.1,1.2,0.3,1.6c0.2,0.4,0.4,0.8,0.7,1.2c0.4,0.4,0.7,0.5,1.1,0.7
			c0.5,0.2,0.9,0.3,1.5,0.3c0.4,0,0.7,0,1-0.1s0.6-0.1,0.7-0.2c0.2-0.1,0.4-0.1,0.6-0.2c0.2-0.1,0.3-0.1,0.4-0.1
			c0.1,0,0.2,0,0.3,0.1c0.1,0.1,0.2,0.1,0.2,0.1s0.1,0.1,0.1,0.2s0,0.2,0,0.3c0,0.1,0,0.3-0.1,0.4c-0.1,0.1-0.1,0.2-0.2,0.3
			c-0.1,0.1-0.3,0.2-0.5,0.3c-0.2,0.1-0.5,0.2-0.7,0.3s-0.7,0.2-1,0.3c-0.4,0.1-0.8,0.1-1.3,0.1c-0.8,0-1.5-0.1-2.1-0.4
			c-0.7-0.3-1.2-0.6-1.7-1c-0.5-0.4-0.8-1-1-1.6s-0.3-1.5-0.3-2.3c0-0.9,0.1-1.8,0.4-2.5c0.3-0.7,0.7-1.3,1.1-1.8s1-0.9,1.7-1.2
			c0.7-0.3,1.3-0.4,2.1-0.4c0.7,0,1.2,0.1,1.8,0.3c0.6,0.2,0.9,0.5,1.4,0.9c0.5,0.4,0.7,0.9,0.8,1.4c0.2,0.5,0.3,1.2,0.3,1.9
			c0,0.4-0.1,0.7-0.3,0.9c-0.2,0.2-0.5,0.3-0.8,0.3L49.8-18.6L49.8-18.6z M55.3-20c-0.1-1-0.4-1.7-0.8-2.1s-1-0.7-1.9-0.7
			c-0.4,0-0.7,0.1-0.9,0.2c-0.3,0.1-0.6,0.3-0.8,0.5s-0.5,0.5-0.7,0.9c-0.2,0.4-0.3,0.8-0.4,1.2H55.3z"/>
		<path class="st2" d="M59.9-18.4c0-0.9,0.1-1.7,0.4-2.5s0.7-1.3,1.1-1.9c0.5-0.5,1.1-0.9,1.8-1.2c0.7-0.3,1.4-0.4,2.2-0.4
			c0.4,0,0.7,0,0.9,0.1c0.3,0.1,0.5,0.1,0.7,0.2s0.4,0.2,0.5,0.2s0.3,0.2,0.3,0.2c0.1,0.1,0.2,0.2,0.2,0.3c0,0.1,0.1,0.2,0.1,0.4
			c0,0.1,0,0.2-0.1,0.3c-0.1,0.1,0.1,0.4,0.1,0.4s-0.1,0.1-0.2,0.2s-0.2,0.1-0.3,0.1c-0.1,0-0.3,0-0.4-0.1c-0.1-0.1-0.3-0.1-0.4-0.2
			s-0.4-0.1-0.6-0.2c-0.2-0.1-0.5-0.1-0.7-0.1c-0.5,0-0.9,0.1-1.3,0.3c-0.4,0.2-0.7,0.4-1,0.8s-0.6,0.8-0.7,1.2s-0.3,1.1-0.3,1.8
			c0,0.6,0.1,1.2,0.3,1.6s0.4,0.9,0.7,1.2c0.4,0.3,0.7,0.5,1.1,0.7c0.5,0.2,0.9,0.3,1.4,0.3c0.3,0,0.6,0,0.8-0.1
			c0.3-0.1,0.4-0.1,0.6-0.2c0.2-0.1,0.3-0.1,0.4-0.2c0.1-0.1,0.2-0.1,0.4-0.1c0.1,0,0.2,0,0.3,0.1c0.1,0.1,0.2,0.1,0.2,0.1
			s0.1,0.1,0.1,0.2s0,0.2,0,0.3c0,0.1,0,0.3-0.1,0.4s-0.1,0.2-0.2,0.3C68-14.1,68-14,67.8-13.9c-0.2,0.1-0.4,0.2-0.7,0.3
			c-0.3,0.1-0.5,0.1-0.8,0.2c-0.4,0.1-0.7,0.1-1,0.1c-0.7,0-1.5-0.1-2.1-0.4c-0.7-0.3-1.2-0.6-1.6-1c-0.4-0.4-0.8-1-1-1.6
			S59.9-17.7,59.9-18.4z"/>
		<path class="st2" d="M70.7-22.6c-0.2,0-0.4-0.1-0.6-0.2c-0.2-0.1-0.2-0.4-0.2-0.5s0.1-0.4,0.2-0.5c0.1-0.1,0.3-0.2,0.6-0.2h1.2
			l0.3-2c0-0.3,0.2-0.5,0.3-0.7c0.1-0.2,0.4-0.2,0.7-0.2c0.3,0,0.5,0.1,0.6,0.2c0.1,0.1,0.2,0.4,0.2,0.6v2h2.3
			c0.2,0,0.4,0.1,0.6,0.2c0.2,0.1,0.2,0.4,0.2,0.5s-0.1,0.4-0.2,0.5c-0.1,0.1-0.3,0.2-0.6,0.2h-2.3v6c0,0.5,0.1,1,0.3,1.2
			c0.2,0.2,0.6,0.4,0.9,0.4c0.2,0,0.3,0,0.5,0s0.2,0,0.3-0.1c0.1-0.1,0.2-0.1,0.3-0.1s0.2,0,0.2,0c0.1,0,0.2,0,0.3,0
			s0.1,0.1,0.2,0.1c0.1,0.1,0.1,0.1,0.1,0.2c0,0.1,0.1,0.2,0.1,0.3c0,0.2,0,0.3-0.1,0.4c-0.1,0.1-0.1,0.2-0.2,0.3
			c-0.1,0.1-0.1,0.1-0.2,0.2c-0.1,0.1-0.3,0.1-0.4,0.2c-0.2,0.1-0.4,0.1-0.6,0.2s-0.5,0.1-0.7,0.1c-0.9,0-1.7-0.2-2.1-0.6
			S72-15.1,72-16v-6.5L70.7-22.6L70.7-22.6z"/>
	</g>
</g>
<g>
	<path class="st2" d="M22.3,17.3L22.3,17.3c0,0.7,0.1,1.2,0.3,1.6c0.2,0.5,0.4,0.8,0.7,1.2c0.3,0.3,0.7,0.6,1.1,0.7
		c0.4,0.2,0.9,0.3,1.4,0.3c0.4,0,0.8,0,1-0.1c0.3-0.1,0.5-0.1,0.7-0.2c0.2-0.1,0.4-0.1,0.5-0.2s0.3-0.1,0.4-0.1c0.1,0,0.2,0,0.3,0.1
		c0.1,0,0.1,0.1,0.2,0.1c0.1,0.1,0.1,0.1,0.1,0.2c0,0.1,0,0.2,0,0.2c0,0.1,0,0.2-0.1,0.3s-0.1,0.2-0.2,0.3c-0.1,0.1-0.2,0.2-0.4,0.3
		c-0.2,0.1-0.4,0.2-0.7,0.3c-0.3,0.1-0.6,0.2-1,0.2c-0.4,0.1-0.8,0.1-1.2,0.1c-0.8,0-1.5-0.1-2.1-0.4c-0.6-0.2-1.2-0.6-1.6-1.1
		c-0.4-0.5-0.8-1-1-1.7c-0.2-0.6-0.4-1.4-0.4-2.2c0-1,0.1-1.8,0.4-2.5s0.6-1.4,1.1-1.9s1-0.9,1.6-1.2c0.6-0.3,1.3-0.4,2-0.4
		c0.6,0,1.2,0.1,1.7,0.3c0.5,0.2,1,0.5,1.3,0.9c0.4,0.4,0.7,0.9,0.9,1.5c0.2,0.6,0.3,1.2,0.3,1.9c0,0.4-0.1,0.7-0.3,0.9
		c-0.2,0.2-0.5,0.3-0.8,0.3H22.3z M27.8,15.9c-0.1-1-0.4-1.7-0.8-2.2c-0.4-0.5-1-0.7-1.8-0.7c-0.3,0-0.6,0.1-0.9,0.2
		s-0.6,0.3-0.8,0.5c-0.2,0.2-0.5,0.5-0.6,0.9c-0.2,0.4-0.3,0.8-0.4,1.3H27.8z"/>
	<path class="st2" d="M33.9,13.6c-0.1-0.1-0.2-0.2-0.2-0.3c-0.1-0.1-0.1-0.2-0.2-0.2c0-0.1-0.1-0.1-0.1-0.2c0-0.1,0-0.1,0-0.2
		c0-0.2,0-0.3,0.1-0.4c0.1-0.1,0.2-0.2,0.3-0.3c0.1-0.1,0.2-0.2,0.4-0.2s0.3-0.1,0.4-0.1c0.1,0,0.2,0,0.3,0c0.1,0,0.2,0.1,0.2,0.1
		c0,0,0,0,0.1,0.1s0,0,0.1,0.1c0,0,0.1,0.1,0.1,0.1c0.1,0.1,0.1,0.1,0.2,0.3l2.7,3.4l2.5-3.3c0.1-0.1,0.1-0.2,0.2-0.3
		s0.1-0.1,0.1-0.2c0,0,0.1-0.1,0.1-0.1c0,0,0,0,0.1-0.1c0.1-0.1,0.1-0.1,0.2-0.2s0.2-0.1,0.3-0.1c0.1,0,0.2,0,0.4,0.1
		s0.2,0.1,0.3,0.2c0.1,0.1,0.2,0.2,0.2,0.3c0.1,0.1,0.1,0.2,0.1,0.4c0,0.1,0,0.1,0,0.2s-0.1,0.1-0.1,0.2c0,0.1-0.1,0.1-0.2,0.2
		c-0.1,0.1-0.1,0.2-0.2,0.3l-2.9,3.5l3.1,3.7c0.1,0.1,0.2,0.2,0.2,0.3c0.1,0.1,0.1,0.2,0.2,0.2c0,0.1,0.1,0.1,0.1,0.2
		c0,0.1,0,0.1,0,0.2c0,0.2,0,0.3-0.1,0.4s-0.2,0.2-0.3,0.3c-0.1,0.1-0.2,0.2-0.4,0.2c-0.1,0-0.3,0.1-0.4,0.1c-0.1,0-0.2,0-0.3,0
		s-0.2-0.1-0.2-0.1c0,0,0,0-0.1-0.1c0,0,0-0.1-0.1-0.1c0,0-0.1-0.1-0.1-0.1s-0.1-0.1-0.2-0.3l-2.9-3.6l-2.7,3.6
		c-0.1,0.1-0.1,0.2-0.2,0.3s-0.1,0.1-0.1,0.2c0,0-0.1,0.1-0.1,0.1c0,0,0,0,0,0.1c-0.1,0.1-0.2,0.1-0.2,0.2c-0.1,0-0.2,0.1-0.3,0.1
		c-0.1,0-0.2,0-0.4-0.1c-0.1,0-0.2-0.1-0.3-0.2s-0.2-0.2-0.2-0.3s-0.1-0.2-0.1-0.4c0-0.1,0-0.1,0-0.2c0-0.1,0.1-0.1,0.1-0.2
		c0-0.1,0.1-0.1,0.2-0.2c0.1-0.1,0.1-0.2,0.2-0.3l3.1-3.7L33.9,13.6z"/>
	<path class="st2" d="M46.7,8.3c0-0.2,0-0.4,0.1-0.5c0.1-0.2,0.2-0.3,0.3-0.4c0.1-0.1,0.3-0.2,0.4-0.3C47.6,7,47.8,7,48,7
		c0.2,0,0.4,0,0.5,0.1c0.2,0.1,0.3,0.2,0.4,0.3c0.1,0.1,0.2,0.3,0.3,0.4c0.1,0.2,0.1,0.3,0.1,0.5c0,0.2,0,0.4-0.1,0.5
		c-0.1,0.2-0.2,0.3-0.3,0.4c-0.1,0.1-0.3,0.2-0.4,0.3c-0.2,0.1-0.3,0.1-0.5,0.1c-0.2,0-0.4,0-0.5-0.1c-0.2-0.1-0.3-0.2-0.4-0.3
		c-0.1-0.1-0.2-0.2-0.3-0.4C46.7,8.7,46.7,8.5,46.7,8.3z M47,12.5c0-0.3,0.1-0.5,0.2-0.6c0.2-0.2,0.4-0.2,0.7-0.2s0.6,0.1,0.7,0.2
		c0.2,0.2,0.2,0.4,0.2,0.6v9.2c0,0.3-0.1,0.5-0.2,0.6c-0.2,0.2-0.4,0.2-0.7,0.2s-0.6-0.1-0.7-0.2C47.1,22.2,47,22,47,21.7V12.5z"/>
	<path class="st2" d="M53.5,13.2c-0.2,0-0.4-0.1-0.5-0.2c-0.1-0.1-0.2-0.3-0.2-0.6c0-0.3,0.1-0.4,0.2-0.6c0.1-0.1,0.3-0.2,0.5-0.2
		h1.2l0.3-2c0-0.3,0.1-0.5,0.3-0.7c0.2-0.2,0.4-0.2,0.6-0.2c0.2,0,0.4,0.1,0.6,0.2s0.2,0.3,0.2,0.6v2.1H59c0.2,0,0.4,0.1,0.5,0.2
		c0.1,0.1,0.2,0.3,0.2,0.6c0,0.3-0.1,0.4-0.2,0.6c-0.1,0.1-0.3,0.2-0.5,0.2h-2.3v6.2c0,0.6,0.1,1,0.3,1.2S57.5,21,58,21
		c0.2,0,0.3,0,0.4,0c0.1,0,0.2,0,0.3-0.1c0.1,0,0.2-0.1,0.2-0.1c0.1,0,0.1,0,0.2,0c0.1,0,0.2,0,0.2,0c0.1,0,0.1,0.1,0.2,0.1
		s0.1,0.1,0.1,0.2c0,0.1,0,0.2,0,0.2c0,0.1,0,0.3-0.1,0.4c0,0.1-0.1,0.2-0.2,0.3c0,0.1-0.1,0.1-0.2,0.2c-0.1,0.1-0.2,0.1-0.4,0.2
		c-0.2,0.1-0.4,0.1-0.6,0.1s-0.5,0.1-0.8,0.1c-0.9,0-1.6-0.2-2.1-0.7c-0.5-0.5-0.7-1.1-0.7-2v-6.7H53.5z"/>
</g>
</svg>
