<?xml version="1.0" encoding="utf-8"?>
<!-- Generator: Adobe Illustrator 25.1.0, SVG Export Plug-In . SVG Version: 6.00 Build 0)  -->
<svg version="1.1" xmlns="http://www.w3.org/2000/svg" xmlns:xlink="http://www.w3.org/1999/xlink" x="0px" y="0px"
	 viewBox="0 0 40 40" style="enable-background:new 0 0 40 40;" xml:space="preserve">
<style type="text/css">
	.st0{fill:#1E1A1A;}
	.st1{opacity:0.9;}
	.st2{fill:#FF3B4D;}
	.st3{fill:#2B2727;}
</style>
<g id="Layer_1">
	<g id="Layer_2_1_">
		<rect class="st0" width="40" height="40"/>
	</g>
	<g id="exit" class="st1">
		<g id="Layer_1_1_">
			<path id="Rectangle_50" class="st2" d="M16,0h8c8.8,0,16,7.2,16,16v8c0,8.8-7.2,16-16,16h-8C7.2,40,0,32.8,0,24v-8
				C0,7.2,7.2,0,16,0z"/>
		</g>
		<g id="Layer_3">
			<path id="Path_30" class="st3" d="M33,16c0-4.4-3.6-8-8-8H15c-4.4,0-8,3.6-8,8l0,0v0.1c-0.1,0.8,0.5,1.4,1.3,1.5s1.4-0.5,1.5-1.3
				c0-0.1,0-0.2,0-0.2c0,0,0-0.1,0-0.1l0,0c0-2.9,2.4-5.2,5.2-5.2h10c2.9,0,5.2,2.4,5.2,5.2l0,0v0.1c-0.1,0.8,0.5,1.4,1.3,1.5
				s1.4-0.5,1.5-1.3c0-0.1,0-0.2,0-0.2V16z"/>
			<path id="Path_31" class="st3" d="M25.4,25.7l-4,4V16.1c0.1-0.8-0.5-1.4-1.3-1.5s-1.4,0.5-1.5,1.3c0,0.1,0,0.2,0,0.2v13.5l-4-4
				c-0.5-0.6-1.4-0.6-2-0.1c-0.6,0.5-0.6,1.4-0.1,2c0,0,0.1,0.1,0.1,0.1L19,34c0.1,0.1,0.3,0.2,0.5,0.3l0,0c0.3,0.1,0.7,0.1,1,0l0,0
				c0.2-0.1,0.4-0.2,0.5-0.3l6.4-6.4c0.6-0.5,0.6-1.4,0.1-2s-1.4-0.6-2-0.1C25.5,25.6,25.4,25.7,25.4,25.7L25.4,25.7z"/>
		</g>
	</g>
</g>
<g id="Layer_2">
</g>
</svg>
