<?xml version="1.0" encoding="utf-8"?>
<!-- Generator: Adobe Illustrator 24.2.1, SVG Export Plug-In . SVG Version: 6.00 Build 0)  -->
<svg version="1.1" xmlns="http://www.w3.org/2000/svg" xmlns:xlink="http://www.w3.org/1999/xlink" x="0px" y="0px"
	 viewBox="0 0 32 32" style="enable-background:new 0 0 32 32;" xml:space="preserve">
<style type="text/css">
	.st0{display:none;}
	.st1{display:inline;}
	.st2{display:inline;fill:#DEFE9B;}
	.st3{fill:#FF3C4D;}
</style>
<g id="Layer_1">
	<g id="Layer_1_2_">
		<g id="Layer_1_1_" class="st0">
			<g id="Layer_2_1_" class="st1">
			</g>
			<path class="st2" d="M16,0C7.2,0,0,7.2,0,16s7.2,16,16,16s16-7.2,16-16S24.8,0,16,0z M24.4,16.8c-0.1,0.3-0.4,0.5-0.8,0.8
				l-10.7,7c-0.2,0.2-0.5,0.3-0.6,0.3C12.1,25,12,25,11.8,25s-0.4,0-0.6-0.1c-0.2-0.1-0.4-0.2-0.5-0.4c-0.1-0.2-0.2-0.3-0.3-0.5
				s-0.1-0.4-0.1-0.6c0-0.3,0.1-0.5,0.2-0.7c0.1-0.2,0.3-0.4,0.6-0.6l9.3-6.1L11,10c-0.3-0.2-0.5-0.4-0.6-0.6
				c-0.1-0.2-0.2-0.4-0.2-0.7c0-0.2,0-0.4,0.1-0.6c0.1-0.2,0.2-0.4,0.4-0.6s0.3-0.3,0.5-0.4s0.4-0.2,0.7-0.2c0.2,0,0.3,0,0.5,0.1
				s0.3,0.2,0.6,0.3l10.7,7c0.4,0.3,0.7,0.5,0.8,0.8c0.1,0.3,0.2,0.6,0.2,0.9C24.6,16.3,24.6,16.6,24.4,16.8z"/>
		</g>
	</g>
</g>
<g id="Layer_2">
	<path class="st3" d="M16.1,0.2C7.4,0.2,0.2,7.3,0.2,16S7.3,31.8,16,31.8S31.9,24.7,31.9,16S24.8,0.2,16.1,0.2z M18.9,22.7
		c0,0.4-0.3,0.7-0.7,0.7H8.6c-0.4,0-0.7-0.3-0.7-0.7V9.3c0-0.4,0.3-0.7,0.7-0.7h9.6c0.4,0,0.7,0.3,0.7,0.7v3.3
		c0,0.4-0.3,0.7-0.7,0.7c-0.4,0-0.7-0.3-0.7-0.7V10H9.2v12h8.3v-2.6c0-0.4,0.3-0.7,0.7-0.7c0.4,0,0.7,0.3,0.7,0.7V22.7z M26.5,15.9
		c0,0.1,0,0.2,0,0.2c0,0.1-0.1,0.1-0.1,0.2L22,20.7c-0.2,0.4-0.6,0.4-0.9,0.2c-0.3-0.3-0.3-0.7,0-0.9l3.3-3.3h-7.2
		c-0.2,0-0.4-0.1-0.5-0.2c-0.1-0.1-0.2-0.3-0.2-0.5c0-0.4,0.3-0.7,0.7-0.7h7.2L21.1,12c-0.3-0.3-0.3-0.7,0-0.9
		c0.3-0.3,0.7-0.3,0.9,0l4.4,4.4c0.1,0.1,0.1,0.1,0.1,0.2C26.5,15.8,26.5,15.9,26.5,15.9z"/>
</g>
</svg>
