<?xml version="1.0" encoding="utf-8"?>
<!-- Generator: Adobe Illustrator 25.0.1, SVG Export Plug-In . SVG Version: 6.00 Build 0)  -->
<svg version="1.1" id="Layer_1" xmlns="http://www.w3.org/2000/svg" xmlns:xlink="http://www.w3.org/1999/xlink" x="0px" y="0px"
	 viewBox="0 0 192 192" style="enable-background:new 0 0 192 192;" xml:space="preserve">
<style type="text/css">
	.st0{fill:#2B2727;}
	.st1{fill:#1E1A1A;}
	.st2{fill:#25C8FF;}
	.st3{opacity:0.5;fill:#FFFFFF;enable-background:new    ;}
	.st4{opacity:0.9;fill:#DEFD9B;enable-background:new    ;}
</style>
<g id="Layer_1_1_">
	<path id="Rectangle_24" class="st0" d="M24,0h144c13.3,0,24,10.7,24,24v144c0,13.3-10.7,24-24,24H24c-13.3,0-24-10.7-24-24V24
		C0,10.7,10.7,0,24,0z"/>
</g>
<g id="Layer_2_1_">
	<ellipse id="Ellipse_13_1_" class="st1" cx="96" cy="89" rx="42" ry="42"/>
	<path id="Rectangle_25_1_" class="st1" d="M43,140h106c8.8,0,16,7.2,16,16v36l0,0H27l0,0v-36C27,147.2,34.2,140,43,140z"/>
</g>
<g id="Layer_3">
	<ellipse id="Ellipse_15_1_" class="st2" cx="96" cy="89" rx="20" ry="20"/>
	<circle id="Ellipse_18_1_" class="st3" cx="89.5" cy="83.4" r="6"/>
	<circle id="Ellipse_14" class="st4" cx="96" cy="26" r="5"/>
</g>
</svg>
