<?xml version="1.0" encoding="utf-8"?>
<!-- Generator: Adobe Illustrator 25.1.0, SVG Export Plug-In . SVG Version: 6.00 Build 0)  -->
<svg version="1.1" xmlns="http://www.w3.org/2000/svg" xmlns:xlink="http://www.w3.org/1999/xlink" x="0px" y="0px"
	 viewBox="0 0 40 40" style="enable-background:new 0 0 40 40;" xml:space="preserve">
<style type="text/css">
	.st0{fill:#1E1A1A;}
	.st1{opacity:0.9;}
	.st2{fill:#DEFD9B;}
	.st3{fill:#2B2727;}
</style>
<g id="Layer_1">
	<g id="Layer_2_1_">
		<rect class="st0" width="40" height="40"/>
	</g>
	<g id="text" class="st1">
		<g id="Layer_1_1_">
			<path id="Rectangle_52" class="st2" d="M16,0h8c8.8,0,16,7.2,16,16v8c0,8.8-7.2,16-16,16h-8C7.2,40,0,32.8,0,24v-8
				C0,7.2,7.2,0,16,0z"/>
		</g>
		<g id="Layer_3">
			<g id="Layer_3-2">
				<path id="Path_27" class="st3" d="M24.8,8.9h-8c-4.1,0-7.4,3.3-7.4,7.4v4c0,0.5,0.1,1.1,0.2,1.6c0,0,0,0.1,0,0.1
					c0.6,2.2-0.6,4.5-2.8,5.1c0,0,0,0,0,0c-0.7,0.2-1.2,0.9-1.1,1.6c0.2,0.7,0.9,1.2,1.6,1.1c0.1,0,0.1,0,0.2,0l0,0
					c1.8-0.5,3.2-1.7,4.1-3.2c0.1-0.2,0.2-0.4,0.3-0.6c1.3,1.2,3.1,1.8,4.8,1.8h8c4.1,0,7.4-3.3,7.4-7.4v-4
					C32.2,12.2,28.9,8.9,24.8,8.9z M29.5,20.2c0,2.6-2.1,4.6-4.6,4.6h-8c-2.6,0-4.6-2.1-4.6-4.6v-4c0-2.6,2.1-4.6,4.6-4.6
					c0,0,0,0,0,0h8c2.6,0,4.6,2.1,4.6,4.6V20.2z"/>
			</g>
		</g>
	</g>
</g>
<g id="Layer_2">
</g>
</svg>
