<?xml version="1.0" encoding="utf-8"?>
<!-- Generator: Adobe Illustrator 25.1.0, SVG Export Plug-In . SVG Version: 6.00 Build 0)  -->
<svg version="1.1" xmlns="http://www.w3.org/2000/svg" xmlns:xlink="http://www.w3.org/1999/xlink" x="0px" y="0px"
	 viewBox="0 0 40 40" style="enable-background:new 0 0 40 40;" xml:space="preserve">
<style type="text/css">
	.st0{opacity:0.9;}
	.st1{fill:#FFFFFF;}
	.st2{fill:#2B2727;}
	.st3{display:none;}
</style>
<g id="Layer_1">
	<g id="mute" class="st0">
		<g id="Layer_1_2_">
			<path id="Rectangle_51" class="st1" d="M16,0h8c8.8,0,16,7.2,16,16v8c0,8.8-7.2,16-16,16h-8C7.2,40,0,32.8,0,24v-8
				C0,7.2,7.2,0,16,0z"/>
		</g>
		<g id="Layer_3_1_">
			<path id="Path_32" class="st2" d="M29.9,8.1c-0.5-0.5-1.4-0.6-1.9-0.1L26,9.8c-1.4-1.7-3.5-2.7-5.6-2.8h-0.7
				c-4.3,0.2-7.6,3.7-7.6,8v5c0,0.9,0.1,1.8,0.4,2.6l-2.2,2.2c-0.6,0.5-0.6,1.4-0.1,1.9c0.3,0.3,0.6,0.4,1,0.4
				c0.4,0,0.7-0.1,0.9-0.4l1.8-1.7c1.2,1.5,2.9,2.4,4.8,2.8V33c0,0.8,0.6,1.4,1.4,1.4c0.8,0,1.4-0.6,1.4-1.4v-5.1
				c3.8-0.7,6.6-4,6.6-7.9v-5c0-0.9-0.2-1.9-0.5-2.8l2.3-2.2C30.4,9.5,30.4,8.7,29.9,8.1z M14.8,20v-5c0-2.9,2.3-5.2,5.2-5.2
				c1.6,0,3,0.8,4,2l-9.2,8.7C14.8,20.3,14.8,20.2,14.8,20z M25.2,15v5c0,2.9-2.3,5.2-5.1,5.2c-1.6,0-3.2-0.7-4.2-2.1l9.3-8.8
				C25.2,14.6,25.2,14.8,25.2,15z"/>
		</g>
	</g>
</g>
<g id="Layer_2" class="st3">
</g>
</svg>
