<?xml version="1.0" encoding="utf-8"?>
<!-- Generator: Adobe Illustrator 25.0.1, SVG Export Plug-In . SVG Version: 6.00 Build 0)  -->
<svg version="1.1" id="Layer_1" xmlns="http://www.w3.org/2000/svg" xmlns:xlink="http://www.w3.org/1999/xlink" x="0px" y="0px"
	 viewBox="0 0 208 48" style="enable-background:new 0 0 208 48;" xml:space="preserve">
<style type="text/css">
	.st0{enable-background:new    ;}
	.st1{fill:#2B2727;}
</style>
<g class="st0">
	<path class="st1" d="M0,23.5c0-2.4,0.3-4.6,1-6.5s1.6-3.5,2.8-4.8s2.7-2.3,4.4-3c1.7-0.7,3.5-1,5.6-1c2,0,3.7,0.3,5.4,1
		c1.6,0.7,3,1.6,4.2,2.9c1.2,1.3,2.1,2.8,2.7,4.6c0.7,1.8,1,3.9,1,6.2c0,2.4-0.3,4.6-1,6.5c-0.7,1.9-1.6,3.5-2.9,4.8
		c-1.2,1.3-2.7,2.3-4.4,3c-1.7,0.7-3.5,1-5.5,1c-2,0-3.8-0.3-5.4-1c-1.6-0.7-3-1.6-4.2-2.9C2.5,33,1.6,31.5,1,29.7
		C0.3,27.9,0,25.8,0,23.5z M4.1,23.1c0,1.9,0.2,3.6,0.7,5c0.5,1.5,1.2,2.7,2,3.7c0.8,1,1.8,1.7,3,2.3c1.2,0.5,2.4,0.8,3.7,0.8
		c1.3,0,2.5-0.3,3.7-0.8c1.1-0.5,2.1-1.3,3-2.2s1.5-2.2,2-3.6c0.5-1.4,0.7-3.1,0.7-5c0-1.9-0.2-3.6-0.7-5c-0.5-1.5-1.2-2.7-2-3.7
		c-0.8-1-1.9-1.8-3-2.3c-1.2-0.5-2.4-0.8-3.7-0.8c-1.3,0-2.6,0.3-3.7,0.8c-1.1,0.5-2.1,1.3-3,2.2c-0.8,1-1.5,2.2-2,3.7
		C4.3,19.5,4.1,21.2,4.1,23.1z"/>
	<path class="st1" d="M35.6,17.8c0-0.5,0.1-0.9,0.4-1.2c0.3-0.3,0.7-0.4,1.2-0.4c0.3,0,0.5,0,0.7,0.1c0.2,0.1,0.4,0.2,0.5,0.3
		c0.1,0.1,0.3,0.3,0.3,0.5c0.1,0.2,0.2,0.5,0.2,0.7l0.2,1.5h0.1c0.4-0.6,1-1.2,1.6-1.7c0.3-0.2,0.6-0.4,0.9-0.6
		c0.4-0.2,0.7-0.4,1.2-0.5c0.4-0.2,0.9-0.3,1.4-0.4c0.5-0.1,1-0.1,1.6-0.1c1.3,0,2.5,0.2,3.5,0.7c1.1,0.4,2,1.1,2.7,2
		c0.8,0.9,1.3,2,1.8,3.3c0.4,1.3,0.6,2.8,0.6,4.6c0,1.8-0.3,3.5-0.8,4.9c-0.5,1.4-1.3,2.7-2.2,3.7c-1,1-2.2,1.8-3.6,2.3
		c-1.4,0.5-3,0.8-4.8,0.8c-0.5,0-1,0-1.5-0.1c-0.5-0.1-0.8-0.1-1.2-0.2c-0.4-0.1-0.7-0.2-1.1-0.3l-0.1,0c0,0.4,0,0.9,0.1,1.3
		c0,0.5,0,0.9,0,1.4v5.8c0,0.6-0.2,1-0.5,1.3c-0.3,0.3-0.8,0.5-1.5,0.5c-0.7,0-1.1-0.2-1.5-0.5c-0.3-0.3-0.5-0.7-0.5-1.3V17.8z
		 M39.4,34.2c0.3,0.2,0.7,0.3,1.1,0.4c0.4,0.1,0.8,0.2,1.3,0.3s1.1,0.1,1.8,0.1c1,0,2-0.2,2.8-0.5c0.8-0.4,1.6-0.9,2.2-1.6
		c0.6-0.7,1.1-1.5,1.4-2.6c0.3-1,0.5-2.2,0.5-3.5c0-1.4-0.1-2.5-0.4-3.5c-0.3-1-0.6-1.8-1.1-2.4c-0.5-0.6-1.1-1.1-1.8-1.4
		c-0.7-0.3-1.5-0.4-2.3-0.4c-0.5,0-0.9,0.1-1.3,0.2c-0.4,0.1-0.8,0.2-1.1,0.4c-0.3,0.2-0.7,0.4-1,0.6c-0.3,0.2-0.5,0.4-0.8,0.7
		c-0.6,0.5-1,1.1-1.4,1.8V34.2z"/>
	<path class="st1" d="M65.2,27.5v0.1c0,1.2,0.2,2.2,0.6,3.1c0.3,0.9,0.8,1.7,1.4,2.3c0.6,0.6,1.3,1.1,2.2,1.4
		c0.8,0.3,1.8,0.5,2.8,0.5c0.8,0,1.5-0.1,2.1-0.2c0.6-0.1,1.1-0.2,1.5-0.4c0.4-0.1,0.8-0.2,1-0.4c0.3-0.1,0.6-0.2,0.8-0.2
		c0.2,0,0.4,0,0.5,0.1c0.2,0.1,0.3,0.2,0.4,0.3c0.1,0.1,0.2,0.2,0.2,0.4c0.1,0.2,0.1,0.3,0.1,0.5c0,0.3,0,0.5-0.1,0.7
		c-0.1,0.2-0.2,0.4-0.4,0.6c-0.2,0.2-0.5,0.4-0.8,0.6c-0.4,0.2-0.9,0.4-1.4,0.6c-0.6,0.2-1.2,0.3-2,0.5c-0.7,0.1-1.6,0.2-2.5,0.2
		c-1.6,0-3-0.2-4.2-0.7c-1.3-0.5-2.3-1.2-3.2-2.1c-0.9-0.9-1.6-2-2.1-3.3c-0.5-1.3-0.7-2.7-0.7-4.3c0-1.9,0.3-3.6,0.8-5
		c0.5-1.5,1.2-2.7,2.1-3.7c0.9-1,1.9-1.8,3.2-2.3c1.2-0.5,2.6-0.8,4-0.8c1.2,0,2.4,0.2,3.4,0.6s1.9,1,2.6,1.8
		c0.7,0.8,1.3,1.7,1.7,2.9c0.4,1.1,0.6,2.4,0.6,3.8c0,0.8-0.2,1.4-0.6,1.8c-0.4,0.4-0.9,0.6-1.7,0.6H65.2z M76,24.7
		c-0.2-2-0.7-3.4-1.6-4.3c-0.9-0.9-2.1-1.4-3.6-1.4c-0.6,0-1.2,0.1-1.8,0.3c-0.6,0.2-1.1,0.6-1.6,1.1c-0.5,0.5-0.9,1.1-1.3,1.8
		c-0.4,0.7-0.6,1.6-0.8,2.5H76z"/>
	<path class="st1" d="M88.1,17.8c0-0.5,0.1-0.9,0.4-1.2c0.3-0.3,0.7-0.4,1.2-0.4c0.3,0,0.5,0,0.7,0.1c0.2,0.1,0.4,0.2,0.5,0.3
		c0.1,0.1,0.3,0.3,0.3,0.5c0.1,0.2,0.2,0.5,0.2,0.7l0.2,1.5h0.1c0.4-0.6,1-1.2,1.6-1.7c0.3-0.2,0.6-0.4,0.9-0.6
		c0.4-0.2,0.7-0.4,1.2-0.5c0.4-0.2,0.9-0.3,1.4-0.4c0.5-0.1,1-0.1,1.6-0.1c1.2,0,2.3,0.2,3.3,0.6c1,0.4,1.8,0.9,2.5,1.7
		c0.7,0.7,1.2,1.6,1.6,2.7c0.4,1.1,0.6,2.3,0.6,3.8v11.4c0,0.6-0.2,1-0.5,1.3c-0.3,0.3-0.8,0.5-1.5,0.5c-0.7,0-1.1-0.2-1.5-0.5
		c-0.3-0.3-0.5-0.7-0.5-1.3V25.3c0-1.1-0.1-2-0.3-2.7c-0.2-0.8-0.5-1.4-1-1.9c-0.4-0.5-1-0.9-1.6-1.1c-0.6-0.2-1.3-0.3-2.1-0.3
		c-0.5,0-0.9,0.1-1.3,0.2c-0.4,0.1-0.8,0.2-1.1,0.4c-0.3,0.2-0.7,0.4-1,0.6c-0.3,0.2-0.5,0.4-0.8,0.7c-0.6,0.5-1,1.1-1.4,1.8v13.3
		c0,0.6-0.2,1-0.5,1.3c-0.3,0.3-0.8,0.5-1.5,0.5c-0.7,0-1.1-0.2-1.5-0.5c-0.3-0.3-0.5-0.7-0.5-1.3V17.8z"/>
	<path class="st1" d="M114.7,24c0-2.5,0.3-4.7,1-6.7c0.7-2,1.6-3.6,2.9-5c1.2-1.4,2.7-2.4,4.4-3.1c1.7-0.7,3.6-1.1,5.6-1.1
		c0.9,0,1.7,0.1,2.5,0.2c0.7,0.1,1.4,0.3,2,0.5c0.6,0.2,1,0.4,1.4,0.7c0.4,0.2,0.7,0.4,0.8,0.6c0.2,0.2,0.4,0.5,0.5,0.7
		s0.1,0.5,0.1,0.8c0,0.2,0,0.4-0.1,0.6c-0.1,0.2-0.2,0.3-0.3,0.5c-0.1,0.1-0.3,0.2-0.5,0.3c-0.2,0.1-0.4,0.1-0.6,0.1
		c-0.3,0-0.6-0.1-0.9-0.3c-0.3-0.2-0.7-0.4-1.1-0.6c-0.5-0.2-1-0.4-1.7-0.6c-0.7-0.2-1.5-0.3-2.5-0.3c-1.3,0-2.5,0.3-3.7,0.8
		c-1.1,0.5-2.1,1.3-3,2.3c-0.8,1-1.5,2.3-2,3.8c-0.5,1.5-0.7,3.2-0.7,5.2c0,1.8,0.2,3.4,0.7,4.8c0.5,1.4,1.2,2.6,2,3.5
		c0.9,1,1.9,1.7,3.1,2.2c1.2,0.5,2.5,0.7,3.9,0.7c0.9,0,1.7-0.1,2.4-0.2c0.7-0.2,1.2-0.3,1.7-0.5c0.5-0.2,0.9-0.4,1.2-0.5
		c0.3-0.2,0.6-0.2,0.9-0.2c0.2,0,0.4,0,0.5,0.1c0.2,0.1,0.3,0.2,0.4,0.3c0.1,0.1,0.2,0.3,0.3,0.4c0.1,0.2,0.1,0.4,0.1,0.6
		c0,0.3,0,0.5-0.1,0.7c-0.1,0.2-0.2,0.4-0.5,0.6c-0.2,0.2-0.6,0.5-1,0.7c-0.4,0.3-1,0.5-1.6,0.7s-1.4,0.4-2.2,0.5s-1.7,0.2-2.7,0.2
		c-1.9,0-3.7-0.3-5.3-1c-1.6-0.6-3-1.6-4.1-2.8c-1.2-1.2-2-2.7-2.7-4.4C115,28.1,114.7,26.2,114.7,24z"/>
	<path class="st1" d="M144,8c0-0.6,0.2-1,0.5-1.3c0.3-0.3,0.8-0.5,1.5-0.5c0.6,0,1.1,0.2,1.5,0.5c0.3,0.3,0.5,0.7,0.5,1.3v8.2
		c0,0.5,0,1,0,1.4c0,0.5-0.1,0.9-0.1,1.5h0.1c0.4-0.6,1-1.1,1.6-1.5c0.3-0.2,0.6-0.4,0.9-0.6c0.3-0.2,0.7-0.4,1.1-0.5
		c0.4-0.2,0.9-0.3,1.3-0.4c0.5-0.1,1-0.1,1.5-0.1c1.2,0,2.3,0.2,3.3,0.6c1,0.4,1.8,0.9,2.5,1.7c0.7,0.7,1.2,1.6,1.6,2.7
		c0.4,1.1,0.6,2.3,0.6,3.8v11.4c0,0.6-0.2,1-0.5,1.3c-0.3,0.3-0.8,0.5-1.5,0.5c-0.7,0-1.1-0.2-1.5-0.5c-0.3-0.3-0.5-0.7-0.5-1.3
		V25.3c0-1.1-0.1-2-0.3-2.7c-0.2-0.8-0.5-1.4-1-1.9c-0.4-0.5-1-0.9-1.6-1.1c-0.6-0.2-1.3-0.3-2.1-0.3c-0.5,0-0.9,0.1-1.3,0.2
		c-0.4,0.1-0.8,0.2-1.1,0.4s-0.7,0.4-1,0.6c-0.3,0.2-0.5,0.4-0.8,0.7c-0.6,0.5-1,1.1-1.4,1.8v13.3c0,0.6-0.2,1-0.5,1.3
		c-0.3,0.3-0.8,0.5-1.5,0.5c-0.7,0-1.1-0.2-1.5-0.5c-0.3-0.3-0.5-0.7-0.5-1.3V8z"/>
	<path class="st1" d="M183.7,24.1c0-0.9-0.1-1.6-0.3-2.3c-0.2-0.6-0.5-1.1-0.9-1.5c-0.4-0.4-0.9-0.7-1.6-0.9
		c-0.6-0.2-1.4-0.3-2.3-0.3c-0.8,0-1.6,0.1-2.2,0.2c-0.6,0.1-1.1,0.3-1.6,0.4c-0.4,0.2-0.8,0.3-1.1,0.4c-0.3,0.1-0.6,0.2-0.8,0.2
		c-0.4,0-0.7-0.1-1-0.4c-0.2-0.2-0.4-0.6-0.4-1c0-0.2,0-0.4,0.1-0.6c0.1-0.2,0.2-0.3,0.4-0.5c0.2-0.2,0.5-0.4,1-0.6
		c0.5-0.2,1-0.4,1.7-0.6c0.6-0.2,1.4-0.4,2.2-0.5c0.8-0.1,1.7-0.2,2.6-0.2c2.7,0,4.7,0.6,6.1,1.9c1.3,1.3,2,3.1,2,5.4v7.8
		c0,0.9,0,1.7,0.1,2.3c0.1,0.6,0.1,1.1,0.2,1.4c0.1,0.4,0.1,0.7,0.2,0.9c0.1,0.2,0.1,0.4,0.1,0.6c0,0.2,0,0.4-0.1,0.6
		c-0.1,0.2-0.2,0.3-0.3,0.5c-0.1,0.1-0.3,0.2-0.5,0.3c-0.2,0.1-0.4,0.1-0.7,0.1c-0.3,0-0.6-0.1-0.9-0.2c-0.3-0.1-0.5-0.3-0.7-0.6
		c-0.2-0.2-0.3-0.5-0.5-0.9c-0.1-0.3-0.2-0.7-0.3-1.1h-0.1c-0.5,0.6-1,1-1.6,1.5c-0.5,0.4-1.2,0.7-2,1c-0.8,0.3-1.7,0.5-2.8,0.5
		c-1.1,0-2.1-0.2-3-0.5c-0.9-0.3-1.6-0.7-2.2-1.3c-0.6-0.5-1.1-1.2-1.4-1.9c-0.3-0.7-0.5-1.6-0.5-2.4c0-0.9,0.2-1.8,0.6-2.5
		c0.4-0.7,1-1.3,1.7-1.8c0.8-0.5,1.7-0.9,2.8-1.1c1.1-0.2,2.3-0.4,3.7-0.4c0.7,0,1.3,0,1.9,0.1c0.6,0.1,1,0.1,1.4,0.2
		c0.5,0.1,0.8,0.1,1.2,0.2V24.1z M183.7,29.5c-0.3-0.1-0.7-0.2-1.1-0.3c-0.4-0.1-0.8-0.1-1.2-0.2c-0.5-0.1-1-0.1-1.6-0.1
		c-1.8,0-3.1,0.2-4,0.7c-0.9,0.5-1.3,1.2-1.3,2.1c0,0.5,0.1,0.9,0.3,1.3c0.2,0.4,0.4,0.7,0.8,1c0.3,0.3,0.8,0.5,1.2,0.7
		c0.5,0.2,1.1,0.3,1.7,0.3c0.8,0,1.6-0.2,2.2-0.5c0.6-0.3,1.2-0.6,1.7-1c0.5-0.4,1-0.9,1.4-1.4V29.5z"/>
	<path class="st1" d="M195.7,19.4c-0.4,0-0.8-0.1-1-0.4c-0.3-0.3-0.4-0.6-0.4-1.1c0-0.5,0.1-0.9,0.4-1.1c0.3-0.3,0.6-0.4,1-0.4h2.4
		l0.5-4c0.1-0.6,0.3-1.1,0.6-1.4c0.3-0.3,0.7-0.4,1.2-0.4c0.5,0,0.9,0.1,1.1,0.4s0.4,0.7,0.4,1.2v4.2h4.5c0.4,0,0.8,0.1,1,0.4
		c0.3,0.3,0.4,0.7,0.4,1.1c0,0.5-0.1,0.9-0.4,1.1c-0.3,0.3-0.6,0.4-1,0.4H202v12.2c0,1.2,0.2,2,0.6,2.4c0.4,0.5,1,0.7,1.9,0.7
		c0.3,0,0.6,0,0.8-0.1c0.2,0,0.4-0.1,0.6-0.1c0.2-0.1,0.3-0.1,0.5-0.1c0.1,0,0.3-0.1,0.4-0.1c0.2,0,0.3,0,0.5,0.1
		c0.1,0.1,0.3,0.1,0.4,0.3s0.2,0.2,0.2,0.4c0.1,0.1,0.1,0.3,0.1,0.5c0,0.3,0,0.5-0.1,0.7s-0.2,0.4-0.4,0.5c-0.1,0.1-0.2,0.2-0.4,0.3
		c-0.2,0.1-0.5,0.3-0.8,0.4c-0.3,0.1-0.7,0.2-1.1,0.3c-0.4,0.1-0.9,0.1-1.5,0.1c-1.9,0-3.2-0.4-4.1-1.3c-0.9-0.9-1.3-2.2-1.3-4V19.4
		H195.7z"/>
</g>
</svg>
