<?xml version="1.0" encoding="utf-8"?>
<!-- Generator: Adobe Illustrator 24.2.1, SVG Export Plug-In . SVG Version: 6.00 Build 0)  -->
<svg version="1.1" id="Layer_1" xmlns="http://www.w3.org/2000/svg" xmlns:xlink="http://www.w3.org/1999/xlink" x="0px" y="0px"
	 viewBox="0 0 64 64" style="enable-background:new 0 0 64 64;" xml:space="preserve">
<style type="text/css">
	.st0{fill:#DEFF9C;}
</style>
<g>
	<g>
		<path class="st0" d="M50.3,23.6h-0.2l-9,8.4V22c0-0.2,0-0.2-0.2-0.2H15.4c-0.2,0-0.2,0-0.2,0.2v20.3c0,0.2,0,0.2,0.2,0.2h25.3
			c0.2,0,0.2,0,0.2-0.2V33l9,8.4h0.2l0.2-0.2V23.6C50.5,23.8,50.3,23.6,50.3,23.6"/>
		<path class="st0" d="M54.5,41.1c0,1.6-1,3.2-2.6,3.8c-1.6,0.6-3.4,0.4-4.6-0.8l-2.2-2v0.2c0,2.4-1.8,4.2-4.2,4.2H15.4
			c-2.4,0-4.2-1.8-4.2-4.2V22c0-2.4,1.8-4.2,4.2-4.2h25.3c2.4,0,4.2,1.8,4.2,4.2v0.8l2.2-2.2c1.2-1.2,3-1.4,4.6-0.8
			c1.6,0.6,2.6,2.2,2.6,3.8v17.6H54.5z M32,0.2C14.4,0.2,0.1,14.6,0.1,32.2S14.4,64.1,32,64.1s31.9-14.4,31.9-31.9S49.5,0.2,32,0.2"
			/>
	</g>
</g>
</svg>
